<?xml version="1.0" encoding="UTF-8"?>
<svg width="24px" height="24px" viewBox="0 0 24 24" version="1.1" xmlns="http://www.w3.org/2000/svg" xmlns:xlink="http://www.w3.org/1999/xlink">
    <!-- Generator: Sketch 58 (84663) - https://sketch.com -->
    <title>@1xstatus/error</title>
    <desc>Created with Sketch.</desc>
    <g id="status/error" stroke="none" stroke-width="1" fill="none" fill-rule="evenodd">
        <rect id="bounds" stroke="#979797" stroke-width="0.01" x="0.005" y="0.005" width="23.99" height="23.99"></rect>
        <path d="M15.6846501,2.10386364 L8.31534993,2.10386364 C8.05013344,2.10386364 7.79577952,2.20922048 7.60824314,2.39675686 L2.39675686,7.60824314 C2.20922048,7.79577952 2.10386364,8.05013344 2.10386364,8.31534993 L2.10386364,15.6846501 C2.10386364,15.9498666 2.20922048,16.2042205 2.39675686,16.3917569 L7.60824314,21.6032431 C7.79577952,21.7907795 8.05013344,21.8961364 8.31534993,21.8961364 L15.6846501,21.8961364 C15.9498666,21.8961364 16.2042205,21.7907795 16.3917569,21.6032431 L21.6032431,16.3917569 C21.7907795,16.2042205 21.8961364,15.9498666 21.8961364,15.6846501 L21.8961364,8.31534993 C21.8961364,8.05013344 21.7907795,7.79577952 21.6032431,7.60824314 L16.3917569,2.39675686 C16.2042205,2.20922048 15.9498666,2.10386364 15.6846501,2.10386364 Z" id="Path" fill="#E03049"></path>
        <polygon id="Path" fill="#FFFFFF" points="13.5 17.5 10.5 17.5 10.5 15.5 13.5 15.5"></polygon>
        <polygon id="Path" fill="#FFFFFF" points="13.5 14 10.5 14 10.5 6 13.5 6"></polygon>
    </g>
</svg>