<?xml version="1.0" encoding="UTF-8"?>
<svg width="26px" height="26px" viewBox="0 0 26 26" version="1.1" xmlns="http://www.w3.org/2000/svg" xmlns:xlink="http://www.w3.org/1999/xlink">
    <!-- Generator: sketchtool 58 (101010) - https://sketch.com -->
    <title>36C13A74-955E-4516-A0F7-643050489CB1</title>
    <desc>Created with sketchtool.</desc>
    <defs>
        <path d="M7.05052725,11.8725497 C6.81020461,11.632227 6.42056462,11.632227 6.18024198,11.8725497 C5.93991934,12.1128723 5.93991934,12.5025123 6.18024198,12.7428349 L9.25716506,15.819758 C9.4974877,16.0600807 9.88712769,16.0600807 10.1274503,15.819758 L16.8966811,9.05052725 C17.1370037,8.81020461 17.1370037,8.42056462 16.8966811,8.18024198 C16.6563585,7.93991934 16.2667185,7.93991934 16.0263958,8.18024198 L9.69230769,14.5143301 L7.05052725,11.8725497 Z" id="path-1"></path>
    </defs>
    <g id="Trips" stroke="none" stroke-width="1" fill="none" fill-rule="evenodd">
        <g id="AddBox-3-CTrip" transform="translate(-278.000000, -168.000000)">
            <g id="tag-copy-3-icons/done" transform="translate(279.000000, 169.000000)">
                <polygon id="Bounds" stroke="#979797" stroke-width="0.01" points="0 0 24 0 24 24 0 24"></polygon>
                <circle id="Oval" fill="#189772" cx="12" cy="12" r="10"></circle>
                <mask id="mask-2" fill="white">
                    <use xlink:href="#path-1"></use>
                </mask>
                <path stroke="#EEF0F4" d="M6.69697386,12.2261031 C6.65191336,12.1810426 6.57885587,12.1810426 6.53379537,12.2261031 C6.48873488,12.2711636 6.48873488,12.3442211 6.53379537,12.3892816 L9.61071845,15.4662046 C9.65577894,15.5112651 9.72883644,15.5112651 9.77389694,15.4662046 L16.5431277,8.69697386 C16.5881882,8.65191336 16.5881882,8.57885587 16.5431277,8.53379537 C16.4980672,8.48873488 16.4250097,8.48873488 16.3799492,8.53379537 L9.69230769,15.2214369 L6.69697386,12.2261031 Z"></path>
            </g>
        </g>
    </g>
</svg>