<?xml version="1.0" encoding="UTF-8"?>
<svg width="24px" height="24px" viewBox="0 0 24 24" version="1.1" xmlns="http://www.w3.org/2000/svg" xmlns:xlink="http://www.w3.org/1999/xlink">
    <!-- Generator: Sketch 58 (84663) - https://sketch.com -->
    <title>@1xicons/callsupport</title>
    <desc>Created with Sketch.</desc>
    <defs>
        <path d="M12.8500927,7.24590905 C14.7355863,7.61377725 16.2098215,9.0880125 16.5776897,10.9735061 C16.7263214,11.7353118 15.7985873,12.229012 15.2497525,11.6801772 L12.1434216,8.57384631 C11.5945868,8.0250115 12.088287,7.09727737 12.8500927,7.24590905 Z M14.0479529,3.00528078 C17.7000091,3.41099489 20.5842895,6.29164726 20.9945999,9.94318993 C21.0776351,10.6821583 20.1835262,11.1129183 19.6573774,10.5874313 L13.4053951,4.34331311 C12.8792462,3.81782611 13.3088805,2.92317578 14.0479529,3.00528078 Z M18.6402795,16.3065784 C18.6504263,15.8878853 18.3596001,15.5446427 17.9712328,15.4898213 C17.1574229,15.382488 16.3583674,15.183435 15.5875341,14.8957948 C15.3001493,14.7877672 14.9761743,14.8568614 14.7609887,15.0696349 L13.7622444,16.0683792 C13.5119189,16.3187047 13.1251891,16.3709128 12.8174469,16.1959258 C10.725575,15.0064545 8.99353611,13.2744156 7.80406486,11.1825437 C7.62907786,10.8748016 7.68128593,10.4880717 7.93161138,10.2377462 L8.92725292,9.2421221 C9.14312918,9.02381635 9.21222339,8.69984129 9.10353134,8.41068234 C8.81655559,7.64162322 8.61750261,6.8425677 8.51115711,6.03598813 C8.45591194,5.64512814 8.11947004,5.35578811 7.71700463,5.35967172 L5.35850659,5.35967172 C5.13775823,5.35991868 4.92726119,5.45289666 4.778435,5.61593238 C4.62960881,5.77896811 4.55615832,5.99704823 4.57482022,6.20463347 C4.81991106,8.51260178 5.60521531,10.7303829 6.87083522,12.6841078 C8.01632497,14.4867751 9.54467208,16.0151222 11.3534573,17.1645394 C13.2925716,18.422048 15.4996195,19.2071739 17.7830959,19.4554219 C18.0036312,19.4753528 18.2223499,19.4013841 18.3855188,19.2516878 C18.5486877,19.1019916 18.6411848,18.8904413 18.6402795,18.665817 L18.6402795,16.3065784 Z M20.2131052,16.3153679 L20.2130988,18.662625 C20.2157951,19.3269218 19.938304,19.9615726 19.4487973,20.4106614 C18.9592905,20.8597502 18.3031346,21.0816563 17.6273621,21.0204539 C15.085159,20.7442228 12.6431939,19.8755283 10.5037991,18.4880985 C8.5062489,17.218772 6.81267508,15.5251982 5.54707141,13.5334503 C4.15085848,11.3781915 3.28196676,8.92435072 3.00958299,6.35845584 C2.94998061,5.69889804 3.17033208,5.04465769 3.61681064,4.55555052 C4.06328921,4.06644335 4.69478035,3.78750939 5.35776601,3.7868075 L7.70926503,3.7868075 C8.89344246,3.77526865 9.90276814,4.64328874 10.0694914,5.82309904 C10.1613141,6.51930636 10.3316022,7.20289144 10.576443,7.85904066 C10.9005257,8.72119496 10.6932431,9.69312016 10.0425115,10.3511576 L9.47858065,10.9150885 C10.4032889,12.365744 11.6342508,13.5967053 13.0849068,14.5214129 L13.6519532,13.9543763 C14.3068705,13.3067475 15.2787957,13.0994649 16.1391758,13.4228832 C16.7970992,13.6683884 17.4806843,13.8386765 18.183918,13.9314582 C19.3665592,14.0982999 20.2373675,15.1223886 20.2131052,16.3153679 Z" id="path-1"></path>
    </defs>
    <g id="icons/callsupport" stroke="none" stroke-width="1" fill="none" fill-rule="evenodd">
        <polygon id="Bounds" stroke="#979797" stroke-width="0.01" points="0 0 24 0 24 24 0 24"></polygon>
        <mask id="mask-2" fill="white">
            <use xlink:href="#path-1"></use>
        </mask>
        <use id="Shape" fill="#23252A" xlink:href="#path-1"></use>
    </g>
</svg>