<?xml version="1.0" encoding="UTF-8"?>
<svg width="24px" height="24px" viewBox="0 0 24 24" version="1.1" xmlns="http://www.w3.org/2000/svg" xmlns:xlink="http://www.w3.org/1999/xlink">
    <!-- Generator: Sketch 58 (84663) - https://sketch.com -->
    <title>@1xicons/camera</title>
    <desc>Created with Sketch.</desc>
    <defs>
        <path d="M14.75,3 C15.0564904,3 15.3427025,3.15317604 15.5127128,3.40819149 L17.0739184,5.75 L20.25,5.75 C21.7687831,5.75 23,6.98121694 23,8.5 L23,18.5833333 C23,20.1021164 21.7687831,21.3333333 20.25,21.3333333 L3.75,21.3333333 C2.23121694,21.3333333 1,20.1021164 1,18.5833333 L1,8.5 C1,6.98121694 2.23121694,5.75 3.75,5.75 L6.92608155,5.75 L8.48728723,3.40819149 C8.65729753,3.15317604 8.94350958,3 9.25,3 L14.75,3 Z M14.2594149,4.83333333 L9.74058511,4.83333333 L8.17937944,7.17514185 C8.00936914,7.43015729 7.72315709,7.58333333 7.41666667,7.58333333 L3.75,7.58333333 C3.24373898,7.58333333 2.83333333,7.99373898 2.83333333,8.5 L2.83333333,18.5833333 C2.83333333,19.0895944 3.24373898,19.5 3.75,19.5 L20.25,19.5 C20.756261,19.5 21.1666667,19.0895944 21.1666667,18.5833333 L21.1666667,8.5 C21.1666667,7.99373898 20.756261,7.58333333 20.25,7.58333333 L16.5833333,7.58333333 C16.2768429,7.58333333 15.9906309,7.43015729 15.8206206,7.17514185 L14.2594149,4.83333333 Z M12,8.5 C14.5313051,8.5 16.5833333,10.5520282 16.5833333,13.0833333 C16.5833333,15.6146384 14.5313051,17.6666667 12,17.6666667 C9.4686949,17.6666667 7.41666667,15.6146384 7.41666667,13.0833333 C7.41666667,10.5520282 9.4686949,8.5 12,8.5 Z M12,10.3333333 C10.4812169,10.3333333 9.25,11.5645503 9.25,13.0833333 C9.25,14.6021164 10.4812169,15.8333333 12,15.8333333 C13.5187831,15.8333333 14.75,14.6021164 14.75,13.0833333 C14.75,11.5645503 13.5187831,10.3333333 12,10.3333333 Z" id="path-1"></path>
    </defs>
    <g id="icons/camera" stroke="none" stroke-width="1" fill="none" fill-rule="evenodd">
        <mask id="mask-2" fill="white">
            <use xlink:href="#path-1"></use>
        </mask>
        <use id="Combined-Shape" fill="#23252A" xlink:href="#path-1"></use>
        <polygon id="Bounds" stroke="#979797" stroke-width="0.01" points="0 0 24 0 24 24 0 24"></polygon>
    </g>
</svg>