<?xml version="1.0" encoding="UTF-8"?>
<svg width="24px" height="24px" viewBox="0 0 24 24" version="1.1" xmlns="http://www.w3.org/2000/svg" xmlns:xlink="http://www.w3.org/1999/xlink">
    <!-- Generator: Sketch 58 (84663) - https://sketch.com -->
    <title>@1xicons/close</title>
    <desc>Created with Sketch.</desc>
    <defs>
        <path d="M15.780638,7.20920944 C16.0595839,6.93026352 16.5118446,6.93026352 16.7907906,7.20920944 C17.0697365,7.48815536 17.0697365,7.94041606 16.7907906,8.21936199 L16.7907906,8.21936199 L13.01,12 L16.7907906,15.780638 C17.0418419,16.0316893 17.066947,16.4231256 16.866106,16.702254 L16.7907906,16.7907906 C16.5118446,17.0697365 16.0595839,17.0697365 15.780638,16.7907906 L15.780638,16.7907906 L12,13.01 L8.21936199,16.7907906 C7.96831066,17.0418419 7.57687436,17.066947 7.29774603,16.866106 L7.20920944,16.7907906 C6.93026352,16.5118446 6.93026352,16.0595839 7.20920944,15.780638 L7.20920944,15.780638 L10.99,12 L7.20920944,8.21936199 C6.95815811,7.96831066 6.93305298,7.57687436 7.13389404,7.29774603 L7.20920944,7.20920944 C7.48815536,6.93026352 7.94041606,6.93026352 8.21936199,7.20920944 L8.21936199,7.20920944 L12,10.99 Z" id="path-1"></path>
    </defs>
    <g id="icons/close" stroke="none" stroke-width="1" fill="none" fill-rule="evenodd">
        <polygon id="Bounds" stroke="#979797" stroke-width="0.01" points="0 0 24 0 24 24 0 24"></polygon>
        <circle id="Oval" fill="#383B40" cx="12" cy="12" r="10"></circle>
        <mask id="mask-2" fill="white">
            <use xlink:href="#path-1"></use>
        </mask>
        <path stroke="#EEF0F4" d="M16.1341985,7.5627557 L12,11.697121 L7.8658086,7.56276283 C7.78212482,7.47907906 7.64644661,7.47907906 7.5900532,7.53318171 L7.53975174,7.58977262 C7.4793089,7.6737759 7.48830054,7.7913463 7.5627557,7.86580146 L11.697121,12 L7.56276283,16.1341914 C7.47907906,16.2178752 7.47907906,16.3535534 7.53318171,16.4099468 L7.58977262,16.4602483 C7.6737759,16.5206911 7.7913463,16.5116995 7.86580146,16.4372443 L12,12.302879 L16.1341914,16.4372372 C16.2178752,16.5209209 16.3535534,16.5209209 16.4099468,16.4668183 L16.4602483,16.4102274 C16.5206911,16.3262241 16.5116995,16.2086537 16.4372443,16.1341985 L12.302879,12 L16.4372372,7.8658086 C16.5209209,7.78212482 16.5209209,7.64644661 16.4372372,7.56276283 C16.3535534,7.47907906 16.2178752,7.47907906 16.1341914,7.56276283 Z"></path>
    </g>
</svg>