<?xml version="1.0" encoding="UTF-8"?>
<svg width="24px" height="24px" viewBox="0 0 24 24" version="1.1" xmlns="http://www.w3.org/2000/svg" xmlns:xlink="http://www.w3.org/1999/xlink">
    <!-- Generator: Sketch 58 (84663) - https://sketch.com -->
    <title>@1xIcons/edit</title>
    <desc>Created with Sketch.</desc>
    <defs>
        <path d="M13.9090909,4.1947396 L4.81818182,13.2856487 L4.81818182,15.6363636 L7.16889676,15.6363636 L16.2598059,6.54545455 L13.9090909,4.1947396 Z M20.2727273,20.1818182 C20.7748043,20.1818182 21.1818182,20.588832 21.1818182,21.0909091 C21.1818182,21.5929861 20.7748043,22 20.2727273,22 L20.2727273,22 L3.90909091,22 C3.40701386,22 3,21.5929861 3,21.0909091 C3,20.588832 3.40701386,20.1818182 3.90909091,20.1818182 L3.90909091,20.1818182 Z M14.5519153,2.26626656 L18.1882789,5.9026302 C18.543301,6.25765228 18.543301,6.83325681 18.1882789,7.18827889 L8.18827889,17.1882789 C8.01779128,17.3587665 7.78656045,17.4545455 7.54545455,17.4545455 L3.90909091,17.4545455 C3.40701386,17.4545455 3,17.0475316 3,16.5454545 L3,12.9090909 C3,12.667985 3.09577895,12.4367542 3.26626656,12.2662666 L13.2662666,2.26626656 C13.6212886,1.91124448 14.1968932,1.91124448 14.5519153,2.26626656 Z" id="path-1"></path>
    </defs>
    <g id="Icons/edit" stroke="none" stroke-width="1" fill="none" fill-rule="evenodd">
        <mask id="mask-2" fill="white">
            <use xlink:href="#path-1"></use>
        </mask>
        <use id="Combined-Shape" fill="#23252A" xlink:href="#path-1"></use>
        <polygon id="Bounds" stroke="#979797" stroke-width="0.01" points="0 0 24 0 24 24 0 24"></polygon>
    </g>
</svg>