<?xml version="1.0" encoding="UTF-8"?>
<svg width="12px" height="12px" viewBox="0 0 12 12" version="1.1" xmlns="http://www.w3.org/2000/svg" xmlns:xlink="http://www.w3.org/1999/xlink">
    <!-- Generator: sketchtool 58 (101010) - https://sketch.com -->
    <title>933158F3-8C6D-45D1-A83C-339321B6E9E3SVG</title>
    <desc>Created with sketchtool.</desc>
    <g id="Trips" stroke="none" stroke-width="1" fill="none" fill-rule="evenodd">
        <g id="TripDetails-MultiTrip" transform="translate(-286.000000, -647.000000)">
            <g id="Group-4" transform="translate(28.000000, 484.000000)">
                <g id="Group-3">
                    <g id="Group-5-Copy" transform="translate(0.000000, 158.000000)">
                        <g id="status/error-small" transform="translate(258.000000, 5.000000)">
                            <rect id="bounds" stroke="#979797" stroke-width="0.01" x="0.005" y="0.005" width="11.99" height="11.99"></rect>
                            <path d="M7.65672781,1 L4.34327219,1 C4.0780557,1 3.82370179,1.10535684 3.63616541,1.29289322 L1.29289322,3.63616541 C1.10535684,3.82370179 1,4.0780557 1,4.34327219 L1,7.65672781 C1,7.9219443 1.10535684,8.17629821 1.29289322,8.36383459 L3.63616541,10.7071068 C3.82370179,10.8946432 4.0780557,11 4.34327219,11 L7.65672781,11 C7.9219443,11 8.17629821,10.8946432 8.36383459,10.7071068 L10.7071068,8.36383459 C10.8946432,8.17629821 11,7.9219443 11,7.65672781 L11,4.34327219 C11,4.0780557 10.8946432,3.82370179 10.7071068,3.63616541 L8.36383459,1.29289322 C8.17629821,1.10535684 7.9219443,1 7.65672781,1 Z" id="Path" fill="#E03049"></path>
                            <circle id="Oval" fill="#FFFFFF" cx="6" cy="6" r="2"></circle>
                        </g>
                    </g>
                </g>
            </g>
        </g>
    </g>
</svg>