<?xml version="1.0" encoding="UTF-8"?>
<svg width="24px" height="24px" viewBox="0 0 24 24" version="1.1" xmlns="http://www.w3.org/2000/svg" xmlns:xlink="http://www.w3.org/1999/xlink">
    <!-- Generator: Sketch 58 (84663) - https://sketch.com -->
    <title>@1xicons/map</title>
    <desc>Created with Sketch.</desc>
    <defs>
        <path d="M12.1666667,1 C17.2292769,1 21.3333334,5.1040564 21.3333334,10.1666666 C21.3333334,13.2573042 19.681132,16.2863401 16.9571234,19.1616826 C16.0230853,20.1476116 15.0250653,21.0458296 14.0267454,21.840788 C13.6767821,22.1194626 13.3511593,22.365767 13.0578586,22.5775953 C12.8791221,22.7066828 12.7488833,22.7968852 12.6751419,22.8460461 C12.3672341,23.051318 11.9660993,23.051318 11.6581915,22.8460461 C11.5844501,22.7968852 11.4542114,22.7066828 11.2754749,22.5775953 C10.9821742,22.365767 10.6565514,22.1194626 10.306588,21.840788 C9.3082681,21.0458296 8.31024811,20.1476116 7.37621006,19.1616826 C4.65220145,16.2863401 3,13.2573042 3,10.1666666 C3,5.1040564 7.10405654,1 12.1666667,1 Z M12.1666667,2.83333334 C8.11657857,2.83333334 4.83333334,6.11657846 4.83333334,10.1666666 C4.83333334,12.6906124 6.27488191,15.3334514 8.70712333,17.9008174 C9.57777279,18.8198363 10.5133466,19.6618527 11.4486204,20.4066078 C11.7039069,20.6098914 11.9445478,20.7941428 12.1666667,20.958232 C12.3887856,20.7941428 12.6294266,20.6098914 12.884713,20.4066078 C13.8199869,19.6618527 14.7555606,18.8198363 15.6262101,17.9008174 C18.0584515,15.3334514 19.5000001,12.6906124 19.5000001,10.1666666 C19.5000001,6.11657846 16.2167549,2.83333334 12.1666667,2.83333334 Z M12.1666667,6.49999991 C14.1917108,6.49999991 15.8333334,8.1416225 15.8333334,10.1666666 C15.8333334,12.1917107 14.1917108,13.8333333 12.1666667,13.8333333 C10.1416226,13.8333333 8.50000003,12.1917107 8.50000003,10.1666666 C8.50000003,8.1416225 10.1416226,6.49999991 12.1666667,6.49999991 Z M12.1666667,8.33333325 C11.1541447,8.33333325 10.3333334,9.15414455 10.3333334,10.1666666 C10.3333334,11.1791886 11.1541447,11.9999999 12.1666667,11.9999999 C13.1791888,11.9999999 14.0000001,11.1791886 14.0000001,10.1666666 C14.0000001,9.15414455 13.1791888,8.33333325 12.1666667,8.33333325 Z" id="path-1"></path>
    </defs>
    <g id="icons/map" stroke="none" stroke-width="1" fill="none" fill-rule="evenodd">
        <mask id="mask-2" fill="white">
            <use xlink:href="#path-1"></use>
        </mask>
        <use id="Combined-Shape" fill="#23252A" xlink:href="#path-1"></use>
        <polygon id="Bounds" stroke="#979797" stroke-width="0.01" points="0 0 24 0 24 24 0 24"></polygon>
    </g>
</svg>