<?xml version="1.0" encoding="UTF-8"?>
<svg width="24px" height="24px" viewBox="0 0 24 24" version="1.1" xmlns="http://www.w3.org/2000/svg" xmlns:xlink="http://www.w3.org/1999/xlink">
    <!-- Generator: Sketch 58 (84663) - https://sketch.com -->
    <title>@1xicons/alertbell</title>
    <desc>Created with Sketch.</desc>
    <defs>
        <path d="M17.4545455,13.8181818 L17.4545455,9.27272719 C17.4545454,6.26026495 15.0124622,3.81818182 12,3.81818182 C8.98753776,3.81818182 6.54545459,6.26026495 6.54545455,9.27272718 L6.54545455,13.8181818 C6.54545455,14.480522 6.36837403,15.1015029 6.05897384,15.6363635 L17.9410262,15.6363635 C17.631626,15.1015029 17.4545455,14.480522 17.4545455,13.8181818 Z M21.0909091,17.4545454 L2.90909091,17.4545454 C1.6969697,17.4545454 1.6969697,15.6363635 2.90909091,15.6363635 C3.913245,15.6363635 4.72727273,14.8223358 4.72727273,13.8181817 L4.72727273,9.27272716 C4.72727279,5.25611084 7.98338368,2 12,2 C16.0166163,2 19.2727272,5.25611084 19.2727273,9.27272718 L19.2727273,13.8181817 C19.2727273,14.8223358 20.086755,15.6363635 21.0909091,15.6363635 C22.3030303,15.6363635 22.3030303,17.4545454 21.0909091,17.4545454 Z M14.3590909,20.6379743 C13.8711849,21.4790712 12.9723663,21.9967783 12,21.9967783 C11.0276337,21.9967783 10.1288151,21.4790712 9.64090909,20.6379743 C9.2893447,20.0319156 9.72662683,19.2727272 10.4272727,19.2727272 L13.5727273,19.2727272 C14.2733732,19.2727272 14.7106553,20.0319156 14.3590909,20.6379743 Z" id="path-1"></path>
    </defs>
    <g id="icons/alertbell" stroke="none" stroke-width="1" fill="none" fill-rule="evenodd">
        <mask id="mask-2" fill="white">
            <use xlink:href="#path-1"></use>
        </mask>
        <use id="Shape" fill="#23252A" xlink:href="#path-1"></use>
        <circle id="Oval" stroke="#FFFFFF" fill="#E03049" fill-rule="nonzero" cx="18" cy="4" r="3"></circle>
        <polygon id="Bounds" stroke="#979797" stroke-width="0.01" points="0 0 24 0 24 24 0 24"></polygon>
    </g>
</svg>