<?xml version="1.0" encoding="UTF-8"?>
<svg width="24px" height="24px" viewBox="0 0 24 24" version="1.1" xmlns="http://www.w3.org/2000/svg" xmlns:xlink="http://www.w3.org/1999/xlink">
    <!-- Generator: Sketch 58 (84663) - https://sketch.com -->
    <title>@1xicons/matching</title>
    <desc>Created with Sketch.</desc>
    <defs>
        <path d="M19.25,12 C19.6642136,12 20,12.3357864 20,12.75 L20,12.75 L20,14.25 C20,16.3210678 18.3210678,18 16.25,18 L16.25,18 L7.561,18 L9.28033009,19.7196699 C9.5732233,20.0125631 9.5732233,20.4874369 9.28033009,20.7803301 C9.01406352,21.0465966 8.59739984,21.0708027 8.30378835,20.8529482 L8.21966991,20.7803301 L5.21966991,17.7803301 L5.19843704,17.7582166 C5.18178062,17.7401487 5.1660007,17.7212604 5.15116475,17.7016193 L5.21966991,17.7803301 C5.18522891,17.7458891 5.15483779,17.7089318 5.12849655,17.67005 C5.11746126,17.6536581 5.10681304,17.6365081 5.09685504,17.6189158 C5.0887019,17.6046244 5.08105843,17.5899909 5.0739304,17.5751715 C5.065445,17.5575139 5.05744952,17.5390942 5.05018864,17.5203089 C5.04602848,17.5094565 5.04230301,17.4990913 5.03881291,17.4886647 C5.03157935,17.4672835 5.02517085,17.4448272 5.01980803,17.4219681 C5.01701468,17.4097261 5.01457582,17.3980328 5.01241813,17.386298 C5.00429489,17.342688 5,17.2968456 5,17.25 L5.0039807,17.327404 C5.00189016,17.3071371 5.00062303,17.2868014 5.00017932,17.2664511 L5,17.25 C5,17.2441901 5.00006606,17.2383956 5.00019748,17.2326172 C5.00066463,17.2125345 5.00192429,17.1925319 5.0039807,17.172596 C5.00606315,17.1520844 5.00891107,17.1323326 5.01251238,17.1128449 C5.01457582,17.1019672 5.01701468,17.0902739 5.01973472,17.078633 C5.02517085,17.0551728 5.03157935,17.0327165 5.03898031,17.0107164 C5.04230301,17.0009087 5.04602848,16.9905435 5.04998933,16.9802481 C5.05744952,16.9609058 5.065445,16.9424861 5.07413984,16.9244672 C5.08105843,16.9100091 5.0887019,16.8953756 5.09686081,16.8809547 C5.10681304,16.8634919 5.11746126,16.8463419 5.1287629,16.8296709 C5.13447314,16.821128 5.14065821,16.8124052 5.14705176,16.8037883 C5.17217116,16.7705706 5.19507007,16.7442698 5.21966991,16.7196699 L8.21966991,13.7196699 C8.51256313,13.4267767 8.98743687,13.4267767 9.28033009,13.7196699 C9.54659665,13.9859365 9.5708027,14.4026002 9.35294824,14.6962117 L9.28033009,14.7803301 L7.559,16.5 L16.25,16.5 C17.440864,16.5 18.4156449,15.5748384 18.4948092,14.4040488 L18.5,14.25 L18.5,12.75 C18.5,12.3357864 18.8357864,12 19.25,12 Z M16.6962117,3.14705176 L16.7803301,3.21966991 L19.7803301,6.21966991 C19.8049299,6.24426976 19.8278288,6.27057056 19.8488352,6.29838075 C19.8527455,6.30347273 19.8563902,6.30842233 19.8599664,6.3134059 C19.875247,6.33477606 19.8898144,6.35753388 19.903145,6.38108416 C19.9112981,6.39537558 19.9189416,6.41000914 19.9260696,6.42482849 C19.934555,6.44248608 19.9425505,6.46090579 19.9498114,6.47969108 L19.9611871,6.51133534 C19.9682078,6.53208384 19.9744597,6.55388154 19.9797267,6.57606067 C19.982701,6.58891527 19.9852988,6.60128538 19.9875819,6.613702 L19.996,6.68 L19.9982459,6.69857635 C19.9987695,6.70624141 19.9991758,6.71391297 19.999465,6.72158812 L20,6.75 C20,6.75991105 19.9998078,6.7697772 19.9994268,6.77959492 C19.9988542,6.79409054 19.9978527,6.80875909 19.9964221,6.82339361 C19.9943128,6.84528402 19.9913287,6.86636981 19.9874876,6.88715509 C19.9854242,6.89803282 19.9829853,6.9097261 19.9802653,6.92136702 C19.9748291,6.9448272 19.9684207,6.96728345 19.9610197,6.98928365 C19.957697,6.99909131 19.9539715,7.00945649 19.9500107,7.01975191 C19.9425505,7.03909421 19.934555,7.05751392 19.9258602,7.07553283 L19.9031392,7.11904532 C19.8941789,7.13475568 19.8846532,7.15023702 19.8745949,7.16533301 L19.845,7.204 L19.8488352,7.20161925 C19.8471451,7.20385686 19.8454427,7.20608469 19.8437281,7.20830264 L19.836,7.216 L19.8308383,7.22455677 L19.7803301,7.28033009 L16.7803301,10.2803301 C16.4874369,10.5732233 16.0125631,10.5732233 15.7196699,10.2803301 C15.4534034,10.0140635 15.4291973,9.59739984 15.6470518,9.30378835 L15.7196699,9.21966991 L17.439,7.5 L8.75,7.5 C7.55913601,7.5 6.58435508,8.42516159 6.50519081,9.59595119 L6.5,9.75 L6.5,11.25 C6.5,11.6642136 6.16421356,12 5.75,12 C5.37030423,12 5.05650904,11.7178461 5.00684662,11.3517706 L5,11.25 L5,9.75 C5,7.74574083 6.57236105,6.10872626 8.55084143,6.00519801 L8.75,6 L17.439,6 L15.7196699,4.28033009 C15.4534034,4.01406352 15.4291973,3.59739984 15.6470518,3.30378835 L15.7196699,3.21966991 C15.9859365,2.95340335 16.4026002,2.9291973 16.6962117,3.14705176 Z M19.842,7.208 L19.7803301,7.28033009 L19.836,7.216 L19.842,7.208 Z" id="path-1"></path>
    </defs>
    <g id="icons/matching" stroke="none" stroke-width="1" fill="none" fill-rule="evenodd">
        <polygon id="Bounds" stroke="#979797" stroke-width="0.01" points="0 0 24 0 24 24 0 24"></polygon>
        <mask id="mask-2" fill="white">
            <use xlink:href="#path-1"></use>
        </mask>
        <use id="Combined-Shape" fill="#23252A" xlink:href="#path-1"></use>
    </g>
</svg>