<?xml version="1.0" encoding="UTF-8"?>
<svg width="24px" height="24px" viewBox="0 0 24 24" version="1.1" xmlns="http://www.w3.org/2000/svg" xmlns:xlink="http://www.w3.org/1999/xlink">
    <!-- Generator: Sketch 58 (84663) - https://sketch.com -->
    <title>@1xicons/more-vertical</title>
    <desc>Created with Sketch.</desc>
    <defs>
        <path d="M11.7272727,16.5454545 C13.2335039,16.5454545 14.4545455,17.7664961 14.4545455,19.2727273 C14.4545455,20.7789584 13.2335039,22 11.7272727,22 C10.2210416,22 9,20.7789584 9,19.2727273 C9,17.7664961 10.2210416,16.5454545 11.7272727,16.5454545 Z M11.7272727,18.3636364 C11.2251957,18.3636364 10.8181818,18.7706502 10.8181818,19.2727273 C10.8181818,19.7748043 11.2251957,20.1818182 11.7272727,20.1818182 C12.2293498,20.1818182 12.6363636,19.7748043 12.6363636,19.2727273 C12.6363636,18.7706502 12.2293498,18.3636364 11.7272727,18.3636364 Z M11.7272727,9.27272727 C13.2335039,9.27272727 14.4545455,10.4937689 14.4545455,12 C14.4545455,13.5062311 13.2335039,14.7272727 11.7272727,14.7272727 C10.2210416,14.7272727 9,13.5062311 9,12 C9,10.4937689 10.2210416,9.27272727 11.7272727,9.27272727 Z M11.7272727,11.0909091 C11.2251957,11.0909091 10.8181818,11.497923 10.8181818,12 C10.8181818,12.502077 11.2251957,12.9090909 11.7272727,12.9090909 C12.2293498,12.9090909 12.6363636,12.502077 12.6363636,12 C12.6363636,11.497923 12.2293498,11.0909091 11.7272727,11.0909091 Z M11.7272727,2 C13.2335039,2 14.4545455,3.22104159 14.4545455,4.72727273 C14.4545455,6.23350386 13.2335039,7.45454545 11.7272727,7.45454545 C10.2210416,7.45454545 9,6.23350386 9,4.72727273 C9,3.22104159 10.2210416,2 11.7272727,2 Z M11.7272727,3.81818182 C11.2251957,3.81818182 10.8181818,4.22519568 10.8181818,4.72727273 C10.8181818,5.22934977 11.2251957,5.63636364 11.7272727,5.63636364 C12.2293498,5.63636364 12.6363636,5.22934977 12.6363636,4.72727273 C12.6363636,4.22519568 12.2293498,3.81818182 11.7272727,3.81818182 Z" id="path-1"></path>
    </defs>
    <g id="icons/more-vertical" stroke="none" stroke-width="1" fill="none" fill-rule="evenodd">
        <mask id="mask-2" fill="white">
            <use xlink:href="#path-1"></use>
        </mask>
        <use id="Combined-Shape" fill="#23252A" xlink:href="#path-1"></use>
        <polygon id="Bounds" stroke="#979797" stroke-width="0.01" points="0 0 24 0 24 24 0 24"></polygon>
    </g>
</svg>